<svg width="92" height="91" fill="none" xmlns="http://www.w3.org/2000/svg"><g opacity=".5" filter="url(#filter0_f)"><path d="M76.717 45.151c0 30.566 0 30.566-30.566 30.566s-30.566 0-30.566-30.566C15.585 15.5 14.5 16 46.15 15.5c28.85-.456 29.35 0 30.567 29.651z" fill="#B34DFD"/></g><g filter="url(#filter1_f)"><path fill-rule="evenodd" clip-rule="evenodd" d="M31.45 9.704c3.802-.175 5.014-.214 14.7-.214 9.688 0 10.9.043 14.7.214 3.799.172 6.392.778 8.662 1.657a17.543 17.543 0 016.315 4.117 17.418 17.418 0 014.11 6.312c.882 2.27 1.485 4.863 1.66 8.656.175 3.809.214 5.021.214 14.705 0 9.686-.042 10.899-.214 14.702-.171 3.793-.778 6.386-1.66 8.655a17.494 17.494 0 01-4.11 6.319 17.486 17.486 0 01-6.315 4.11c-2.27.882-4.863 1.485-8.656 1.66-3.806.175-5.018.214-14.705.214-9.687 0-10.9-.042-14.702-.214-3.793-.171-6.386-.778-8.656-1.66a17.497 17.497 0 01-6.318-4.11 17.48 17.48 0 01-4.114-6.315c-.879-2.27-1.481-4.863-1.657-8.656-.175-3.81-.213-5.022-.213-14.705 0-9.687.042-10.9.213-14.699.172-3.8.778-6.393 1.657-8.662a17.494 17.494 0 014.117-6.315 17.48 17.48 0 016.312-4.114c2.27-.879 4.863-1.482 8.656-1.657h.003zm29.11 6.42c-3.76-.172-4.888-.208-14.41-.208-9.52 0-10.649.035-14.41.207-3.478.16-5.364.74-6.622 1.229-1.663.648-2.853 1.417-4.101 2.665a11.062 11.062 0 00-2.665 4.1c-.49 1.259-1.07 3.145-1.229 6.624-.171 3.76-.207 4.889-.207 14.41s.036 10.65.207 14.41c.16 3.478.74 5.365 1.229 6.623a11.07 11.07 0 002.665 4.1 11.069 11.069 0 004.1 2.666c1.259.49 3.145 1.07 6.624 1.228 3.76.172 4.885.208 14.41.208 9.524 0 10.65-.036 14.41-.208 3.479-.158 5.365-.739 6.623-1.228 1.663-.649 2.853-1.417 4.101-2.665a11.069 11.069 0 002.665-4.101c.49-1.258 1.07-3.145 1.228-6.623.172-3.76.208-4.889.208-14.41 0-9.522-.036-10.65-.207-14.41-.16-3.479-.74-5.365-1.23-6.623-.648-1.663-1.416-2.853-2.664-4.101a11.063 11.063 0 00-4.1-2.665c-1.259-.49-3.145-1.07-6.624-1.229zm-18.964 40.02a11.894 11.894 0 0012.968-19.406 11.898 11.898 0 10-12.968 19.406zM33.19 32.19a18.33 18.33 0 1125.922 25.92A18.33 18.33 0 0133.19 32.19zm35.356-2.639a4.334 4.334 0 10-5.948-6.305 4.334 4.334 0 005.948 6.305z" fill="#B34DFD"/></g><g filter="url(#filter2_d)"><path fill-rule="evenodd" clip-rule="evenodd" d="M32.636 12.002c3.599-.165 4.746-.202 13.914-.202s10.315.04 13.911.202c3.596.163 6.05.737 8.198 1.568 2.25.85 4.29 2.179 5.977 3.897a16.486 16.486 0 013.89 5.974c.835 2.147 1.406 4.602 1.572 8.192.165 3.605.202 4.752.202 13.917 0 9.168-.04 10.315-.202 13.914-.163 3.59-.737 6.044-1.571 8.192a16.556 16.556 0 01-3.89 5.98 16.548 16.548 0 01-5.978 3.89c-2.147.835-4.602 1.406-8.192 1.571-3.602.166-4.75.203-13.917.203-9.168 0-10.315-.04-13.914-.203-3.59-.162-6.044-.736-8.192-1.57a16.559 16.559 0 01-5.98-3.891 16.544 16.544 0 01-3.893-5.977c-.832-2.148-1.403-4.602-1.568-8.192-.166-3.605-.203-4.752-.203-13.917 0-9.168.04-10.315.203-13.911.162-3.596.736-6.05 1.567-8.198a16.556 16.556 0 013.897-5.977 16.544 16.544 0 015.974-3.894c2.148-.831 4.602-1.402 8.192-1.568h.003zm27.552 6.075c-3.559-.162-4.627-.196-13.638-.196s-10.079.034-13.638.196c-3.292.15-5.078.7-6.268 1.163-1.574.614-2.7 1.34-3.881 2.522a10.469 10.469 0 00-2.523 3.881c-.463 1.19-1.012 2.977-1.162 6.269-.163 3.559-.197 4.627-.197 13.638s.034 10.079.197 13.638c.15 3.292.7 5.078 1.163 6.268a10.476 10.476 0 002.522 3.881 10.476 10.476 0 003.88 2.522c1.191.464 2.977 1.013 6.27 1.163 3.558.163 4.623.197 13.637.197 9.015 0 10.08-.034 13.638-.197 3.292-.15 5.078-.7 6.269-1.163 1.574-.613 2.7-1.34 3.88-2.522a10.476 10.476 0 002.523-3.88c.463-1.191 1.012-2.977 1.163-6.27.162-3.558.196-4.626.196-13.637s-.034-10.08-.196-13.638c-.15-3.292-.7-5.078-1.163-6.269-.614-1.573-1.341-2.7-2.522-3.88a10.472 10.472 0 00-3.881-2.523c-1.19-.463-2.977-1.012-6.269-1.163zM42.24 55.954a11.257 11.257 0 0012.273-18.366A11.26 11.26 0 1042.24 55.954zm-7.955-22.67a17.347 17.347 0 1124.533 24.532 17.347 17.347 0 01-24.533-24.533zm33.461-2.498a4.103 4.103 0 10-5.631-5.97 4.103 4.103 0 005.631 5.97z" fill="#fff"/></g><defs><filter id="filter0_f" x=".58" y=".419" width="91.137" height="90.298" filterUnits="userSpaceOnUse" color-interpolation-filters="sRGB"><feFlood flood-opacity="0" result="BackgroundImageFix"/><feBlend in="SourceGraphic" in2="BackgroundImageFix" result="shape"/><feGaussianBlur stdDeviation="7.5" result="effect1_foregroundBlur"/></filter><filter id="filter1_f" x="5.491" y="4.49" width="81.321" height="81.321" filterUnits="userSpaceOnUse" color-interpolation-filters="sRGB"><feFlood flood-opacity="0" result="BackgroundImageFix"/><feBlend in="SourceGraphic" in2="BackgroundImageFix" result="shape"/><feGaussianBlur stdDeviation="2.5" result="effect1_foregroundBlur"/></filter><filter id="filter2_d" x="4.8" y="5.8" width="83.5" height="83.5" filterUnits="userSpaceOnUse" color-interpolation-filters="sRGB"><feFlood flood-opacity="0" result="BackgroundImageFix"/><feColorMatrix in="SourceAlpha" values="0 0 0 0 0 0 0 0 0 0 0 0 0 0 0 0 0 0 127 0"/><feOffset dy="2"/><feGaussianBlur stdDeviation="4"/><feColorMatrix values="0 0 0 0 0 0 0 0 0 0 0 0 0 0 0 0 0 0 0.25 0"/><feBlend in2="BackgroundImageFix" result="effect1_dropShadow"/><feBlend in="SourceGraphic" in2="effect1_dropShadow" result="shape"/></filter></defs></svg>