<svg width="85" height="85" fill="none" xmlns="http://www.w3.org/2000/svg"><g filter="url(#filter0_d)"><path fill-rule="evenodd" clip-rule="evenodd" d="M28.636 7.002c3.599-.165 4.746-.202 13.914-.202s10.315.04 13.911.202c3.596.163 6.05.737 8.198 1.568 2.25.85 4.29 2.179 5.977 3.897a16.486 16.486 0 013.89 5.973c.835 2.148 1.406 4.603 1.572 8.192.165 3.606.202 4.753.202 13.918 0 9.168-.04 10.315-.202 13.914-.163 3.59-.737 6.044-1.571 8.192a16.556 16.556 0 01-3.89 5.98 16.548 16.548 0 01-5.978 3.89c-2.147.835-4.602 1.406-8.192 1.571-3.602.166-4.75.203-13.917.203-9.168 0-10.315-.04-13.914-.203-3.59-.162-6.044-.736-8.192-1.57a16.559 16.559 0 01-5.98-3.891 16.544 16.544 0 01-3.894-5.977c-.831-2.148-1.402-4.602-1.567-8.192-.166-3.605-.203-4.752-.203-13.917 0-9.168.04-10.315.203-13.911.162-3.596.736-6.05 1.567-8.198a16.556 16.556 0 013.897-5.977 16.544 16.544 0 015.974-3.894c2.148-.831 4.602-1.402 8.192-1.568h.003zm27.552 6.075c-3.559-.162-4.627-.196-13.638-.196s-10.079.034-13.638.196c-3.292.15-5.078.7-6.268 1.163-1.574.614-2.7 1.34-3.881 2.522a10.469 10.469 0 00-2.523 3.881c-.463 1.19-1.012 2.977-1.162 6.269-.163 3.559-.197 4.627-.197 13.638s.034 10.079.197 13.638c.15 3.292.7 5.078 1.163 6.268a10.476 10.476 0 002.522 3.881 10.476 10.476 0 003.88 2.522c1.191.464 2.977 1.013 6.27 1.163 3.558.163 4.623.197 13.637.197 9.015 0 10.08-.034 13.638-.197 3.292-.15 5.078-.7 6.268-1.163 1.575-.613 2.7-1.34 3.882-2.522a10.476 10.476 0 002.522-3.88c.463-1.191 1.012-2.977 1.163-6.27.162-3.558.196-4.626.196-13.637s-.034-10.08-.196-13.638c-.15-3.292-.7-5.078-1.163-6.269-.614-1.573-1.341-2.7-2.522-3.88a10.472 10.472 0 00-3.881-2.523c-1.19-.463-2.977-1.012-6.269-1.163zM38.24 50.954a11.257 11.257 0 0012.273-18.366A11.26 11.26 0 1038.24 50.954zm-7.955-22.67a17.347 17.347 0 1124.533 24.532 17.347 17.347 0 01-24.533-24.533zm33.461-2.498a4.103 4.103 0 10-5.631-5.97 4.103 4.103 0 005.631 5.97z" fill="#B34DFD"/></g><defs><filter id="filter0_d" x=".8" y=".8" width="83.5" height="83.5" filterUnits="userSpaceOnUse" color-interpolation-filters="sRGB"><feFlood flood-opacity="0" result="BackgroundImageFix"/><feColorMatrix in="SourceAlpha" values="0 0 0 0 0 0 0 0 0 0 0 0 0 0 0 0 0 0 127 0"/><feOffset dy="2"/><feGaussianBlur stdDeviation="4"/><feColorMatrix values="0 0 0 0 0 0 0 0 0 0 0 0 0 0 0 0 0 0 0.25 0"/><feBlend in2="BackgroundImageFix" result="effect1_dropShadow"/><feBlend in="SourceGraphic" in2="effect1_dropShadow" result="shape"/></filter></defs></svg>