<svg width="95" height="90" fill="none" xmlns="http://www.w3.org/2000/svg"><g filter="url(#filter0_f)"><ellipse cx="43.77" cy="43.661" rx="7.642" ry="11.038" transform="rotate(47.422 43.77 43.66)" fill="#B34DFD"/></g><g filter="url(#filter1_f)"><path d="M74.3 14.359L6.534 40.897c-2.202.724-1.957 3.86.245 4.584l17.125 5.307 6.85 21.23c.489 1.69 2.69 2.172 3.914.966l10.03-9.168 19.083 13.752a2.583 2.583 0 003.914-1.448l13.21-55.971c.734-4.102-2.935-7.238-6.605-5.79zm-39.632 40.53l-2.202 12.546-4.893-17.37L75.28 19.184 34.668 54.89z" fill="#B34DFD"/></g><g filter="url(#filter2_d)"><path d="M71.209 17.413L12.627 40.55c-1.904.63-1.692 3.365.211 3.996l14.804 4.628 5.922 18.51c.423 1.473 2.326 1.893 3.384.842l8.67-7.993 16.497 11.99c1.269.84 2.96.21 3.383-1.263l11.42-48.8c.635-3.576-2.537-6.31-5.71-5.048zM36.948 52.75l-1.904 10.938-4.23-15.145 41.24-26.924-35.106 31.13z" fill="#fff"/></g><defs><filter id="filter0_f" x="15.472" y="15.566" width="56.596" height="56.19" filterUnits="userSpaceOnUse" color-interpolation-filters="sRGB"><feFlood flood-opacity="0" result="BackgroundImageFix"/><feBlend in="SourceGraphic" in2="BackgroundImageFix" result="shape"/><feGaussianBlur stdDeviation="7.5" result="effect1_foregroundBlur"/></filter><filter id="filter1_f" x="0" y="9" width="86" height="74" filterUnits="userSpaceOnUse" color-interpolation-filters="sRGB"><feFlood flood-opacity="0" result="BackgroundImageFix"/><feBlend in="SourceGraphic" in2="BackgroundImageFix" result="shape"/><feGaussianBlur stdDeviation="2.5" result="effect1_foregroundBlur"/></filter><filter id="filter2_d" x="3.3" y="11.1" width="81.7" height="71.8" filterUnits="userSpaceOnUse" color-interpolation-filters="sRGB"><feFlood flood-opacity="0" result="BackgroundImageFix"/><feColorMatrix in="SourceAlpha" values="0 0 0 0 0 0 0 0 0 0 0 0 0 0 0 0 0 0 127 0"/><feOffset dy="2"/><feGaussianBlur stdDeviation="4"/><feColorMatrix values="0 0 0 0 0 0 0 0 0 0 0 0 0 0 0 0 0 0 0.25 0"/><feBlend in2="BackgroundImageFix" result="effect1_dropShadow"/><feBlend in="SourceGraphic" in2="effect1_dropShadow" result="shape"/></filter></defs></svg>