<svg width="90" height="90" fill="none" xmlns="http://www.w3.org/2000/svg"><g opacity=".6" filter="url(#filter0_f)"><ellipse cx="45" cy="45" rx="29" ry="30" fill="#B34DFD"/></g><g filter="url(#filter1_f)"><path d="M70.842 19.106a36.013 36.013 0 00-11.78-7.88 36.146 36.146 0 00-13.924-2.735c-20.02 0-36.336 16.237-36.354 36.171a36.18 36.18 0 004.846 18.095L8.49 81.51l19.273-5.029a36.497 36.497 0 0017.375 4.404h.018c20.024 0 36.335-16.237 36.354-36.19a35.902 35.902 0 00-2.768-13.856 36.034 36.034 0 00-7.905-11.732h.005zM45.138 74.76a30.237 30.237 0 01-15.385-4.199l-1.1-.657-11.434 2.985 3.053-11.104-.715-1.145a29.838 29.838 0 01-4.616-15.996c0-16.548 13.556-30.047 30.215-30.047a30.19 30.19 0 0111.566 2.28 30.081 30.081 0 019.797 6.532 29.915 29.915 0 016.555 9.754 29.808 29.808 0 012.283 11.513C75.34 61.283 61.783 74.76 45.137 74.76zM61.71 52.243c-.903-.452-5.364-2.638-6.203-2.949-.834-.296-1.444-.451-2.04.452-.61.9-2.352 2.948-2.874 3.537-.523.607-1.064.675-1.971.228-.903-.456-3.833-1.405-7.298-4.495-2.705-2.396-4.516-5.362-5.057-6.261-.523-.904-.05-1.388.403-1.84.4-.401.904-1.058 1.357-1.578.459-.52.61-.904.908-1.507.298-.611.156-1.131-.069-1.583-.229-.452-2.04-4.91-2.805-6.709-.734-1.775-1.481-1.529-2.04-1.551-.523-.032-1.133-.032-1.742-.032a3.354 3.354 0 00-2.426 1.127c-.834.904-3.167 3.09-3.167 7.548 0 4.459 3.255 8.744 3.713 9.351.45.607 6.39 9.73 15.509 13.655 2.154.935 3.85 1.487 5.175 1.907 2.178.694 4.145.589 5.712.365 1.742-.264 5.369-2.19 6.134-4.303.752-2.118.752-3.925.523-4.304-.225-.383-.834-.607-1.742-1.058z" fill="#B34DFD"/></g><g filter="url(#filter2_d)"><path d="M69.207 20.744a33.738 33.738 0 00-11.035-7.381A33.862 33.862 0 0045.13 10.8c-18.753 0-34.037 15.21-34.054 33.884 0 5.98 1.572 11.799 4.54 16.95L10.8 79.2l18.054-4.71a34.188 34.188 0 0016.275 4.125h.017c18.758 0 34.037-15.21 34.054-33.901a33.633 33.633 0 00-2.592-12.98 33.755 33.755 0 00-7.405-10.99h.004zM45.13 72.878a28.323 28.323 0 01-14.412-3.933l-1.03-.616-10.71 2.796 2.86-10.401-.67-1.073a27.951 27.951 0 01-4.325-14.984c0-15.501 12.699-28.147 28.304-28.147 3.718-.006 7.4.72 10.835 2.137a28.18 28.18 0 019.177 6.118 28.023 28.023 0 016.14 9.137 27.92 27.92 0 012.14 10.785c-.018 15.556-12.716 28.18-28.309 28.18zm15.524-21.093c-.846-.423-5.024-2.471-5.81-2.762-.782-.278-1.353-.423-1.911.423-.571.843-2.203 2.762-2.693 3.314-.49.568-.996.632-1.846.213-.846-.427-3.59-1.316-6.837-4.21-2.533-2.245-4.23-5.024-4.736-5.866-.49-.846-.048-1.3.377-1.723.374-.376.846-.992 1.272-1.479.43-.487.57-.846.85-1.41.279-.573.146-1.06-.065-1.484-.214-.423-1.91-4.6-2.628-6.284-.687-1.663-1.387-1.432-1.91-1.454-.49-.03-1.061-.03-1.633-.03a3.142 3.142 0 00-2.271 1.056c-.782.847-2.968 2.894-2.968 7.071s3.05 8.19 3.479 8.76c.42.568 5.986 9.114 14.528 12.79 2.018.877 3.607 1.394 4.848 1.787 2.04.65 3.882.552 5.35.342 1.632-.248 5.03-2.052 5.746-4.031.705-1.984.705-3.677.49-4.031-.21-.36-.782-.569-1.632-.992z" fill="#fff"/></g><defs><filter id="filter0_f" x="1" y="0" width="88" height="90" filterUnits="userSpaceOnUse" color-interpolation-filters="sRGB"><feFlood flood-opacity="0" result="BackgroundImageFix"/><feBlend in="SourceGraphic" in2="BackgroundImageFix" result="shape"/><feGaussianBlur stdDeviation="7.5" result="effect1_foregroundBlur"/></filter><filter id="filter1_f" x="3.491" y="3.49" width="83.019" height="83.019" filterUnits="userSpaceOnUse" color-interpolation-filters="sRGB"><feFlood flood-opacity="0" result="BackgroundImageFix"/><feBlend in="SourceGraphic" in2="BackgroundImageFix" result="shape"/><feGaussianBlur stdDeviation="2.5" result="effect1_foregroundBlur"/></filter><filter id="filter2_d" x="2.8" y="4.8" width="84.4" height="84.4" filterUnits="userSpaceOnUse" color-interpolation-filters="sRGB"><feFlood flood-opacity="0" result="BackgroundImageFix"/><feColorMatrix in="SourceAlpha" values="0 0 0 0 0 0 0 0 0 0 0 0 0 0 0 0 0 0 127 0"/><feOffset dy="2"/><feGaussianBlur stdDeviation="4"/><feColorMatrix values="0 0 0 0 0 0 0 0 0 0 0 0 0 0 0 0 0 0 0.25 0"/><feBlend in2="BackgroundImageFix" result="effect1_dropShadow"/><feBlend in="SourceGraphic" in2="effect1_dropShadow" result="shape"/></filter></defs></svg>