<svg width="86" height="86" fill="none" xmlns="http://www.w3.org/2000/svg"><g filter="url(#filter0_d)"><path d="M67.207 16.744a33.737 33.737 0 00-11.035-7.381A33.86 33.86 0 0043.13 6.8C24.376 6.8 9.092 22.01 9.075 40.684c0 5.98 1.572 11.799 4.54 16.95L8.8 75.2l18.054-4.71a34.188 34.188 0 0016.275 4.125h.017c18.758 0 34.037-15.21 34.054-33.901a33.633 33.633 0 00-2.592-12.98 33.755 33.755 0 00-7.405-10.99h.004zM43.13 68.877a28.324 28.324 0 01-14.412-3.932l-1.03-.616-10.71 2.796 2.86-10.401-.67-1.073a27.951 27.951 0 01-4.325-14.984c0-15.501 12.699-28.147 28.304-28.147 3.718-.006 7.4.72 10.835 2.136a28.18 28.18 0 019.177 6.12 28.023 28.023 0 016.14 9.136 27.921 27.921 0 012.14 10.785c-.018 15.556-12.716 28.18-28.309 28.18zm15.524-21.092c-.846-.423-5.024-2.471-5.81-2.762-.782-.278-1.353-.423-1.911.423-.571.842-2.203 2.762-2.693 3.313-.49.569-.996.633-1.846.214-.846-.427-3.59-1.317-6.837-4.21-2.533-2.245-4.23-5.024-4.736-5.866-.49-.846-.048-1.3.377-1.723.374-.376.846-.992 1.272-1.479.43-.487.57-.846.85-1.41.279-.574.146-1.06-.065-1.484-.214-.423-1.91-4.6-2.628-6.284-.687-1.663-1.387-1.433-1.91-1.454-.49-.03-1.061-.03-1.633-.03a3.142 3.142 0 00-2.271 1.056c-.782.847-2.968 2.894-2.968 7.07 0 4.178 3.05 8.192 3.479 8.76.42.569 5.986 9.115 14.528 12.791 2.018.877 3.607 1.394 4.848 1.787 2.04.65 3.882.552 5.35.342 1.632-.248 5.03-2.052 5.746-4.031.705-1.984.705-3.677.49-4.032-.21-.359-.782-.568-1.632-.991z" fill="#B34DFD"/></g><defs><filter id="filter0_d" x=".8" y=".8" width="84.4" height="84.4" filterUnits="userSpaceOnUse" color-interpolation-filters="sRGB"><feFlood flood-opacity="0" result="BackgroundImageFix"/><feColorMatrix in="SourceAlpha" values="0 0 0 0 0 0 0 0 0 0 0 0 0 0 0 0 0 0 127 0"/><feOffset dy="2"/><feGaussianBlur stdDeviation="4"/><feColorMatrix values="0 0 0 0 0 0 0 0 0 0 0 0 0 0 0 0 0 0 0.25 0"/><feBlend in2="BackgroundImageFix" result="effect1_dropShadow"/><feBlend in="SourceGraphic" in2="effect1_dropShadow" result="shape"/></filter></defs></svg>